<?xml version="1.0" encoding="utf-8"?>
<!-- Generator: Adobe Illustrator 14.0.0, SVG Export Plug-In  -->
<svg version="1.1"
	 xmlns="http://www.w3.org/2000/svg"
	 x="0px" y="0px" width="180px" height="67px" viewBox="0 -2.96 180 67" enable-background="new 0 -2.96 180 67"
	 xml:space="preserve">
<defs>
</defs>
<path d="M161.744,56.746V48.57c0.152,0.46,0.215,0.973,0.215,1.532v6.942h-0.215h2.682l2.424-3.431l2.721,3.431h2.98l-4.418-5.376
	l4.032-5.147h-2.809l-2.459,3.212l-2.237-3.212h-2.826l3.729,5.147L161.744,56.746z M161.744,48.57v8.176l-0.236,0.299h0.236h-2.258
	l0.01-6.604c0-1.374-0.604-2.078-1.848-2.078c-0.36,0-0.727,0.104-1.064,0.347c-0.344,0.209-0.579,0.448-0.715,0.721v7.614H153.4
	l0.008-6.985c0-0.517-0.146-0.923-0.477-1.229c-0.312-0.294-0.766-0.468-1.363-0.468c-0.305,0-0.647,0.124-1.019,0.36
	c-0.359,0.219-0.615,0.476-0.789,0.754l-0.002,7.567h-2.438V46.519h1.694l0.49,0.926c0.686-0.752,1.57-1.116,2.635-1.116
	c1.417,0,2.463,0.364,3.175,1.133c0.306-0.343,0.725-0.62,1.287-0.833c0.533-0.213,1.094-0.3,1.646-0.3
	c1.183,0,2.082,0.318,2.727,1.008C161.318,47.681,161.572,48.111,161.744,48.57 M121.058,57.235v-1.991
	c0.774,0,1.368-0.306,1.821-0.926c0.452-0.6,0.66-1.45,0.66-2.573c0-2.288-0.825-3.426-2.481-3.426v-1.991
	c1.59,0,2.834,0.47,3.732,1.436c0.88,0.98,1.326,2.312,1.326,3.987c0,1.69-0.446,3.019-1.372,4.01
	C123.864,56.739,122.623,57.241,121.058,57.235 M138.446,57.041v-6.6c0-1.374-0.623-2.078-1.848-2.078
	c-0.385,0-0.734,0.104-1.063,0.338c-0.354,0.218-0.584,0.45-0.729,0.729v7.614h-2.448v-6.99c0-0.512-0.169-0.918-0.499-1.224
	c-0.318-0.294-0.767-0.468-1.346-0.468c-0.301,0-0.639,0.124-1.005,0.36c-0.364,0.219-0.626,0.476-0.796,0.754v7.563h-2.439V46.519
	h1.66l0.523,0.923c0.688-0.749,1.561-1.113,2.636-1.113c1.397,0,2.445,0.364,3.152,1.133c0.316-0.343,0.75-0.62,1.285-0.833
	c0.554-0.213,1.112-0.3,1.65-0.3c1.179,0,2.107,0.318,2.746,1.008c0.662,0.66,0.989,1.583,0.989,2.761v6.948L138.446,57.041z
	 M142.128,55.761c0-0.495,0.173-0.93,0.514-1.262c0.343-0.351,0.755-0.518,1.242-0.518c0.495,0,0.936,0.167,1.272,0.518
	c0.333,0.332,0.509,0.767,0.509,1.262c0,0.493-0.176,0.899-0.509,1.264c-0.35,0.342-0.777,0.511-1.272,0.511
	c-0.487,0-0.899-0.169-1.242-0.511C142.301,56.657,142.128,56.254,142.128,55.761 M121.058,46.328v1.991
	c-0.771,0-1.372,0.305-1.847,0.901c-0.422,0.62-0.663,1.456-0.663,2.524c0,2.32,0.844,3.499,2.51,3.499v1.991
	c-1.611,0-2.851-0.496-3.728-1.5c-0.496-0.54-0.835-1.203-1.078-1.93v-4.004c0.243-0.751,0.607-1.396,1.142-1.979
	C118.312,46.816,119.535,46.328,121.058,46.328 M116.252,56.38c0.09-0.044,0.195-0.105,0.283-0.172l-0.283-0.579V56.38z
	 M116.252,47.674l0.195-0.319c-0.064-0.06-0.123-0.108-0.195-0.151V47.674z M116.252,47.203v0.471l-0.854,1.521
	c-0.574-0.552-1.348-0.832-2.312-0.832c-0.92,0-1.679,0.322-2.212,0.942c-0.532,0.617-0.812,1.475-0.812,2.568
	c0,2.209,1.053,3.304,3.148,3.304c0.922,0,1.719-0.294,2.42-0.9l0.621,1.352v0.751c-0.592,0.359-1.13,0.578-1.581,0.689
	c-0.538,0.101-1.18,0.172-1.912,0.166c-1.626,0-2.889-0.472-3.835-1.412c-0.941-0.947-1.411-2.274-1.411-3.949
	c0-1.669,0.517-2.993,1.542-4.031c1.028-1.026,2.422-1.515,4.201-1.515C114.397,46.328,115.397,46.605,116.252,47.203
	 M116.252,49.802c-0.156,0.598-0.253,1.239-0.253,1.949c0.004,0.75,0.097,1.438,0.253,2.055V49.802z M50.08,56.677v-0.323
	c0.047,0.042,0.118,0.084,0.151,0.112C50.197,56.525,50.145,56.609,50.08,56.677 M50.08,50.052h5.084v2.314H50.08V50.052z
	 M103.007,55.761c0-0.498,0.177-0.93,0.514-1.272c0.351-0.343,0.775-0.512,1.244-0.512c0.519,0,0.926,0.169,1.264,0.52
	c0.346,0.335,0.52,0.77,0.52,1.265c0,0.485-0.174,0.896-0.517,1.259c-0.341,0.347-0.748,0.516-1.267,0.516
	c-0.472,0-0.894-0.169-1.244-0.516C103.181,56.657,103.007,56.246,103.007,55.761 M50.08,52.366h-0.123v-2.314h0.123V52.366z
	 M50.08,56.354c-0.472-0.405-0.698-1.245-0.698-2.528v-2.271c0-2.043-0.374-3.413-1.116-4.141c-0.714-0.687-1.779-1.051-3.263-1.085
	v2.056c1.269,0.097,1.911,0.722,1.911,1.838c-0.391-0.108-0.733-0.152-1.035-0.149c-0.297-0.003-0.598,0.021-0.876,0.041v1.906
	c0.302-0.041,0.62-0.06,0.987-0.06c0.219,0,0.514,0.047,0.94,0.129v0.983c0,1.374-0.645,2.1-1.927,2.186v1.908
	c0.344-0.047,0.686-0.149,1.002-0.281c0.542-0.231,0.949-0.531,1.158-0.895c0.114,0.3,0.303,0.597,0.583,0.855
	c0.277,0.254,0.603,0.39,0.939,0.39c0.323,0,0.6-0.047,0.86-0.136c0.201-0.062,0.384-0.192,0.535-0.423V56.354z M45.002,46.328
	v2.056c-0.132,0-0.278-0.027-0.452-0.027c-0.919,0-1.692,0.176-2.312,0.475l-0.518-1.91c0.841-0.405,1.849-0.593,3.004-0.593H45.002
	z M45.002,50.113v1.906c-1.291,0.196-1.93,0.819-1.93,1.845c0,0.945,0.559,1.42,1.651,1.42c0.088,0,0.194,0,0.278-0.026v1.908
	c-0.24,0.049-0.497,0.069-0.726,0.069c-1.145,0-2.039-0.289-2.685-0.864c-0.277-0.234-0.513-0.533-0.662-0.878v-3.058
	c0.212-0.518,0.572-0.971,1.067-1.336C42.73,50.541,43.739,50.222,45.002,50.113 M40.93,56.587c0.104-0.121,0.212-0.279,0.301-0.428
	c-0.11-0.042-0.219-0.086-0.301-0.151V56.587z M40.93,52.436v3.058c-0.218-0.429-0.302-0.94-0.302-1.522
	C40.628,53.396,40.712,52.882,40.93,52.436 M40.93,56.008c-0.58-0.34-0.86-1.069-0.86-2.183V41.992l-2.466,0.597v12.329
	c0,1.548,0.559,2.317,1.672,2.317c0.708,0,1.262-0.219,1.655-0.648V56.008z M28.211,57.037V48.53h1.339v8.507h2.483V46.516h-3.822
	v-4.503l0.032-0.021v15.045H28.211z M30.813,42.416c0.382,0,0.726,0.154,1.002,0.433c0.282,0.281,0.414,0.621,0.414,1.002
	c0,0.393-0.137,0.732-0.414,1.01c-0.276,0.277-0.62,0.41-1.002,0.41c-0.389,0-0.728-0.133-1.008-0.41
	c-0.283-0.277-0.431-0.617-0.431-1.01c0-0.381,0.148-0.726,0.431-1.002C30.085,42.57,30.424,42.416,30.813,42.416 M33.49,42.589
	l2.466-0.597v11.833c0,1.305,0.381,2.078,1.159,2.334c-0.389,0.712-1.031,1.076-1.958,1.076c-1.104,0-1.667-0.777-1.667-2.317
	V42.589z M28.211,42.013v4.503h-0.017v2.015h0.017v8.507h-2.42v-0.642c-0.211,0.236-0.551,0.431-1.044,0.575
	c-0.407,0.148-0.864,0.244-1.312,0.265v-2.148c0.254,0.043,0.518,0.064,0.815,0.064c0.236,0,0.517-0.064,0.858-0.213
	c0.339-0.129,0.575-0.281,0.683-0.409v-5.511c-0.532-0.405-1.072-0.617-1.649-0.617c-0.252,0-0.492,0.019-0.707,0.063v-2.147h0.174
	c0.787,0,1.522,0.148,2.189,0.475v-4.203L28.211,42.013z M23.436,46.317v2.147c-0.641,0.104-1.178,0.383-1.564,0.832
	c-0.533,0.606-0.788,1.462-0.794,2.577c0.006,1.882,0.794,2.957,2.358,3.213v2.148h-0.187c-1.46,0-2.619-0.479-3.458-1.397
	c-0.469-0.514-0.816-1.139-1.028-1.891v-3.923c0.236-0.811,0.647-1.544,1.203-2.137C20.908,46.879,22.042,46.362,23.436,46.317
	 M18.762,56.819c0.111-0.102,0.174-0.232,0.257-0.361c-0.083-0.062-0.172-0.125-0.257-0.215V56.819z M18.762,50.024v3.923
	c-0.148-0.597-0.238-1.263-0.238-2.013C18.524,51.25,18.614,50.606,18.762,50.024 M18.762,56.243
	c-0.388-0.446-0.58-1.263-0.58-2.418v-2.278c0-2.036-0.387-3.406-1.112-4.134c-0.705-0.687-1.801-1.051-3.257-1.096v2.061
	c1.266,0.103,1.907,0.728,1.907,1.841c-0.408-0.106-0.749-0.149-1.033-0.149c-0.302,0-0.596,0.024-0.874,0.044v1.906
	c0.278-0.041,0.621-0.06,0.98-0.066c0.197,0,0.518,0.054,0.947,0.136v0.983c-0.007,1.374-0.648,2.1-1.928,2.186v1.908
	c0.34-0.047,0.662-0.149,0.98-0.281c0.558-0.231,0.947-0.531,1.18-0.895c0.09,0.298,0.285,0.597,0.562,0.855
	c0.278,0.254,0.594,0.39,0.961,0.39c0.318,0,0.597-0.047,0.868-0.136c0.139-0.036,0.27-0.129,0.398-0.28V56.243z M9.59,49.984
	c0.128,0.557,0.173,1.178,0.173,1.863c0,0.622-0.045,1.182-0.173,1.694v1.609c0.17,0.495,0.423,0.9,0.799,1.22
	c0.657,0.575,1.538,0.864,2.668,0.864c0.257,0,0.496-0.021,0.756-0.069v-1.908c-0.111,0.021-0.197,0.021-0.302,0.021
	c-1.096,0-1.63-0.471-1.63-1.414c0-1.025,0.648-1.652,1.932-1.845v-1.906c-1.27,0.105-2.276,0.428-3.025,0.986
	c-0.582,0.447-0.984,1.005-1.199,1.673V49.984z M13.814,46.317v2.061c-0.153,0-0.302-0.021-0.452-0.021
	c-0.922,0-1.699,0.174-2.316,0.468l-0.535-1.903c0.858-0.41,1.842-0.604,3.028-0.604H13.814z M4.829,46.317
	c2.679,0.027,4.271,1.244,4.761,3.667v2.788c-0.108,0.357-0.175,0.77-0.175,1.198c0,0.432,0.066,0.837,0.175,1.181v-1.609
	c-0.213,0.92-0.623,1.691-1.228,2.296c-0.878,0.88-2.053,1.351-3.538,1.397v-2.127c0.736-0.107,1.27-0.366,1.63-0.751
	c0.517-0.562,0.756-1.415,0.756-2.574c0-1.242-0.239-2.119-0.727-2.632c-0.39-0.371-0.923-0.604-1.654-0.713V46.317z M2.453,56.778
	v4.397H0l0.005-14.668h2.448v0.707c0.617-0.595,1.395-0.897,2.266-0.897h0.11v2.121c-0.235-0.019-0.515-0.037-0.79-0.037
	c-0.608,0-1.12,0.229-1.587,0.683v5.53c0.45,0.362,0.962,0.537,1.56,0.532c0.301,0,0.582-0.017,0.811-0.038v2.127
	c-0.072-0.008-0.166,0-0.253,0C3.799,57.228,3.091,57.083,2.453,56.778"/>
<path fill="#009B7A" d="M92.741,56.59v-0.579c0.107,0.066,0.19,0.106,0.323,0.153C92.955,56.312,92.873,56.466,92.741,56.59
	 M92.741,48.537h1.044v8.504h2.495V46.516h-3.539V48.537z M95.062,42.422c0.377,0,0.726,0.148,1.006,0.427
	c0.278,0.285,0.427,0.628,0.427,1.007c0,0.392-0.148,0.73-0.427,1.012c-0.28,0.274-0.629,0.406-1.006,0.406
	c-0.392,0-0.736-0.132-1.009-0.406c-0.278-0.281-0.414-0.62-0.414-1.012c0-0.379,0.136-0.722,0.414-1.007
	C94.325,42.57,94.67,42.422,95.062,42.422 M97.735,42.589l2.465-0.592v11.828c0,1.308,0.382,2.078,1.157,2.339
	c-0.381,0.707-1.028,1.071-1.955,1.071c-1.116,0-1.667-0.77-1.667-2.317V42.589z M92.741,46.516v2.021l-0.302-0.005v-2.017H92.741z
	 M92.741,56.011c-0.56-0.342-0.861-1.072-0.861-2.186l0.004-11.828l-2.423,0.592v12.329c-0.007,1.548,0.558,2.317,1.676,2.317
	c0.689,0,1.214-0.216,1.604-0.646V56.011z M83.825,57.166v-1.903c1.287-0.088,1.932-0.816,1.932-2.182v-0.992
	c-0.434-0.082-0.735-0.129-0.947-0.129c-0.368,0-0.688,0.028-0.985,0.066v-1.908c0.273-0.021,0.58-0.046,0.874-0.046
	c0.302,0.003,0.649,0.046,1.037,0.149c0-1.109-0.647-1.734-1.911-1.838v-2.056c1.459,0.037,2.545,0.398,3.257,1.088
	c0.749,0.734,1.117,2.095,1.117,4.138v2.271c0,1.395,0.281,2.275,0.86,2.641c-0.222,0.36-0.431,0.575-0.684,0.634
	c-0.259,0.091-0.548,0.136-0.867,0.136c-0.364,0-0.662-0.128-0.94-0.383c-0.301-0.263-0.492-0.562-0.582-0.862
	c-0.229,0.363-0.617,0.663-1.175,0.902C84.49,57.02,84.164,57.124,83.825,57.166 M83.825,46.328v2.056
	c-0.155,0-0.278-0.021-0.451-0.021c-0.92,0-1.692,0.169-2.316,0.468l-0.538-1.903c0.859-0.412,1.868-0.6,3.027-0.6H83.825z
	 M83.825,50.118v1.908c-1.287,0.189-1.932,0.812-1.932,1.846c0,0.938,0.561,1.415,1.654,1.412c0.08,0.003,0.191,0,0.278-0.021v1.903
	c-0.236,0.049-0.497,0.069-0.734,0.069c-1.136,0-2.033-0.277-2.675-0.864c-0.639-0.548-0.99-1.363-0.99-2.4
	c0-1.216,0.473-2.182,1.374-2.864C81.554,50.545,82.56,50.222,83.825,50.118 M73.43,61.157v-2.188
	c1.134-0.017,1.924-0.173,2.355-0.45c0.447-0.318,0.69-0.878,0.69-1.692v-8.294h-1.911v-2.017h4.37v10.286
	c0,1.502-0.467,2.626-1.44,3.305C76.622,60.776,75.25,61.137,73.43,61.157 M73.43,57.037h0.296l0.002-10.521H73.43V57.037z
	 M77.626,42.422c0.392,0,0.729,0.148,1.006,0.427c0.284,0.281,0.412,0.628,0.412,1.007c0,0.392-0.138,0.73-0.412,1.005
	c-0.277,0.281-0.62,0.41-1.006,0.41c-0.406,0-0.724-0.129-1.004-0.41c-0.278-0.274-0.434-0.613-0.434-1.005
	c0-0.379,0.155-0.726,0.434-1.007C76.902,42.57,77.22,42.422,77.626,42.422 M59.214,46.328c1.456,0.034,2.615,0.529,3.516,1.454
	c0.94,0.962,1.416,2.202,1.416,3.727c0,1.758-0.476,3.156-1.442,4.176c-0.853,0.969-2.033,1.46-3.489,1.551v-2.145
	c0.726-0.11,1.27-0.363,1.63-0.775c0.488-0.576,0.751-1.477,0.751-2.722c0-1.863-0.797-2.911-2.382-3.143V46.328z M73.43,46.516
	v10.521h-2.171v-0.878c-0.346,0.307-0.811,0.559-1.433,0.777c-0.603,0.188-1.162,0.299-1.671,0.299c-2.446,0-3.67-1.287-3.67-3.906
	v-6.813h2.462v6.644c0,1.35,0.608,2.016,1.804,2.016c0.555,0,1.099-0.128,1.564-0.43c0.467-0.281,0.794-0.621,0.946-1.006v-7.224
	H73.43z M73.43,58.969v2.188c-0.112,0.021-0.215,0.021-0.302,0.021v-2.209H73.43z M56.343,56.466l-0.561,0.77h-1.396V42.589
	l2.47-0.597v4.929c0.661-0.405,1.373-0.593,2.139-0.593h0.219v2.123c-0.219-0.025-0.455-0.05-0.684-0.05
	c-0.735,0-1.287,0.195-1.674,0.621v5.486c0.367,0.43,0.853,0.645,1.46,0.649c0.339-0.005,0.64-0.025,0.897-0.067v2.145h-0.361
	C57.89,57.235,57.049,56.978,56.343,56.466"/>
<path d="M69.05,25.897l-18.644-0.003c0.111,2.083,0.824,3.698,2.145,4.855c1.312,1.15,3.083,1.727,5.314,1.727
	c2.776,0,4.885-0.728,6.336-2.167l2.363,4.656c-2.146,1.737-5.35,2.607-9.604,2.607c-3.979,0-7.131-1.167-9.444-3.497
	c-2.315-2.334-3.475-5.589-3.472-9.766c0-4.111,1.271-7.44,3.814-9.995c2.547-2.55,5.596-3.824,9.155-3.824
	c3.783,0,6.823,1.124,9.114,3.392c2.294,2.257,3.436,5.132,3.436,8.626C69.563,23.258,69.393,24.387,69.05,25.897 M50.627,21.316
	h12.814c-0.423-3.824-2.53-5.732-6.336-5.732C53.627,15.584,51.468,17.493,50.627,21.316"/>
<path d="M88.236,37.572V22.48c0-2.226-0.426-3.851-1.276-4.873c-0.855-1.026-2.247-1.539-4.183-1.539
	c-0.889,0-1.85,0.252-2.858,0.759c-1.021,0.504-1.814,1.129-2.383,1.873v18.864h-6.089V11.462h4.387l1.12,2.437
	c1.658-1.948,4.105-2.924,7.331-2.924c3.107,0,5.559,0.935,7.351,2.792c1.798,1.858,2.696,4.456,2.696,7.788v16.01L88.236,37.572z"
	/>
<path d="M98.833,15.879h-3.021v-4.901h3.021V5.665l6.095-2.238l-0.003,7.555h7.17v4.897h-7.17v11.434
	c0,1.867,0.289,3.185,0.873,3.959c0.589,0.774,1.615,1.153,3.075,1.153c1.466,0.006,2.826-0.393,4.099-1.189v5.608
	c-1.419,0.485-3.431,0.728-6.049,0.728c-2.597,0-4.598-0.734-5.996-2.209c-1.401-1.466-2.094-3.56-2.094-6.273V15.879z"/>
<path d="M129.193,34.479c-0.548,0.908-1.511,1.652-2.886,2.229c-1.37,0.58-2.812,0.863-4.297,0.863
	c-2.816,0-5.026-0.702-6.632-2.108c-1.607-1.405-2.419-3.397-2.419-5.982c0-3.022,1.134-5.384,3.406-7.095
	c2.262-1.706,5.485-2.555,9.666-2.555c0.71,0,1.557,0.123,2.537,0.364c0-3.073-1.95-4.611-5.828-4.611
	c-2.297,0-4.21,0.388-5.754,1.149L115.675,12c2.089-1,4.582-1.507,7.484-1.507c3.976,0.002,6.888,0.908,8.744,2.72
	c1.855,1.81,2.777,5.243,2.777,10.295v5.582c0,3.479,0.7,5.665,2.099,6.556c-0.506,0.881-1.066,1.422-1.683,1.622
	c-0.615,0.201-1.326,0.304-2.126,0.304c-0.872,0-1.662-0.327-2.358-0.972C129.911,35.948,129.439,35.24,129.193,34.479
	 M128.609,24.801c-1.037-0.215-1.816-0.32-2.334-0.32c-4.811,0-7.221,1.575-7.221,4.733c0,2.341,1.36,3.51,4.074,3.51
	c3.655,0,5.48-1.826,5.48-5.483V24.801z"/>
<path d="M136.634,35.403l2.169-4.848c1.823,1.448,3.879,2.172,6.169,2.172c2.374,0,3.564-0.848,3.564-2.537
	c0-0.994-0.358-1.805-1.079-2.44c-0.713-0.627-2.103-1.382-4.163-2.244c-4.505-1.866-6.754-4.48-6.754-7.844
	c0-2.26,0.862-4.021,2.586-5.28c1.723-1.259,3.924-1.887,6.604-1.887c2.719,0,5.27,0.606,7.649,1.829l-1.747,4.726
	c-1.338-1.134-3.184-1.703-5.559-1.703c-2.133,0-3.19,0.842-3.19,2.533c0,0.666,0.346,1.265,1.049,1.802
	c0.691,0.536,2.189,1.255,4.482,2.16c2.29,0.897,3.938,1.993,4.945,3.277c1.004,1.288,1.508,2.833,1.508,4.659
	c0,2.42-0.897,4.322-2.694,5.711c-1.791,1.392-4.232,2.082-7.32,2.082c-1.736,0-3.133-0.142-4.184-0.425
	C139.628,36.87,138.281,36.285,136.634,35.403"/>
<path d="M164.486,26.266h-4.653c-0.034-0.114-0.186-0.53-0.454-1.241c-0.27-0.722-0.401-1.343-0.401-1.877
	c0-1.023,0.144-2.009,0.426-2.949c0.285-0.942,0.699-1.825,1.257-2.649c0.555-0.816,1.642-2.13,3.28-3.933
	c1.627-1.806,2.451-3.29,2.449-4.461c0-2.273-1.488-3.413-4.461-3.413c-1.446,0-2.959,0.725-4.538,2.168l-2.502-4.703
	c2.091-1.646,4.845-2.462,8.257-2.462c2.633,0,4.831,0.733,6.597,2.193c1.762,1.461,2.644,3.411,2.644,5.827
	c0,1.661-0.319,3.057-0.961,4.205c-0.65,1.145-1.776,2.491-3.392,4.032c-1.616,1.546-2.67,2.829-3.154,3.852
	c-0.494,1.024-0.734,2.148-0.734,3.362C164.145,24.479,164.26,25.165,164.486,26.266 M162.416,29.581
	c1.104,0,2.042,0.391,2.816,1.17c0.77,0.783,1.157,1.725,1.157,2.832c0,1.103-0.388,2.047-1.157,2.822
	c-0.774,0.776-1.712,1.174-2.819,1.174c-1.103,0-2.048-0.397-2.826-1.174c-0.778-0.781-1.169-1.72-1.169-2.829
	c0-1.101,0.384-2.042,1.169-2.825C160.365,29.971,161.311,29.581,162.416,29.581"/>
<path d="M8.388,12.059h4.653c0.035,0.114,0.187,0.53,0.454,1.24c0.271,0.721,0.402,1.342,0.402,1.878
	c0,1.022-0.144,2.009-0.426,2.947c-0.284,0.943-0.699,1.825-1.257,2.65c-0.554,0.816-1.641,2.129-3.279,3.932
	c-1.628,1.806-2.453,3.291-2.449,4.462c0,2.275,1.487,3.413,4.46,3.413c1.446,0,2.96-0.724,4.537-2.167l2.502,4.703
	c-2.09,1.645-4.844,2.462-8.257,2.462c-2.633,0-4.831-0.735-6.596-2.194c-1.761-1.461-2.645-3.41-2.645-5.827
	c0-1.662,0.32-3.057,0.961-4.204c0.649-1.146,1.775-2.491,3.391-4.032c1.616-1.547,2.67-2.829,3.154-3.852
	c0.494-1.025,0.735-2.148,0.735-3.362C8.731,13.844,8.614,13.159,8.388,12.059 M10.458,8.743c-1.105,0-2.042-0.39-2.816-1.17
	c-0.77-0.783-1.156-1.724-1.156-2.831c0-1.103,0.387-2.047,1.156-2.823c0.775-0.776,1.711-1.172,2.82-1.172
	c1.104,0,2.048,0.396,2.826,1.172c0.777,0.782,1.17,1.72,1.17,2.829c0,1.102-0.384,2.042-1.17,2.825
	C12.51,8.353,11.565,8.743,10.458,8.743"/>
<path fill-rule="evenodd" clip-rule="evenodd" d="M176.402,0.676c1.65,0.15,2.926,1.518,2.926,3.196
	c0,1.661-1.275,3.049-2.926,3.196v-0.57c1.335-0.142,2.358-1.275,2.358-2.626c0-1.368-1.023-2.483-2.358-2.628V0.676z
	 M176.402,4.513l0.767,1.242l0.621,0.006l-1.132-1.814c0.207-0.055,0.387-0.165,0.531-0.362c0.161-0.204,0.235-0.424,0.235-0.664
	c0-0.638-0.341-1.005-1.022-1.092v0.51c0.095,0.03,0.17,0.055,0.223,0.089c0.162,0.108,0.24,0.255,0.24,0.473
	c0,0.276-0.078,0.46-0.226,0.549c-0.05,0.053-0.143,0.09-0.237,0.106V4.513z M176.114,0.662c0.109,0,0.199-0.005,0.288,0.014v0.567
	c-0.089-0.021-0.179-0.021-0.288-0.021c-1.458,0-2.648,1.189-2.648,2.649s1.19,2.65,2.648,2.65c0.106,0,0.199,0,0.288-0.023v0.57
	c-0.089,0-0.182,0.018-0.288,0.018c-1.775,0-3.216-1.441-3.209-3.214C172.898,2.103,174.339,0.657,176.114,0.662 M176.402,1.83
	c-0.102-0.02-0.245-0.042-0.378-0.042c-0.128,0-0.312,0.022-0.568,0.022c-0.254,0.02-0.401,0.034-0.419,0.034v3.917h0.526V4.04
	c0.254,0.017,0.461,0.033,0.566,0.033l0.272,0.44V3.557c-0.102,0.04-0.272,0.059-0.451,0.059c-0.134,0-0.26-0.019-0.388-0.036V2.32
	c0.169-0.021,0.275-0.037,0.333-0.037c0.201,0,0.382,0.02,0.506,0.056V1.83z"/>
<path d="M40.422,37.572l-9.926-15.358c-0.999-0.017-2.395-0.077-4.188-0.178v15.536h-6.855V0.381c0.373,0,1.803-0.063,4.291-0.19
	C26.231,0.064,28.236,0,29.759,0c9.443,0,14.167,3.656,14.167,10.968c0,2.2-0.652,4.205-1.956,6.016
	c-1.303,1.812-2.945,3.089-4.924,3.833l10.992,16.755H40.422z M26.307,6.119v10.332c1.218,0.102,2.149,0.152,2.792,0.152
	c2.759,0,4.776-0.389,6.055-1.167c1.278-0.778,1.917-2.293,1.917-4.545c0-1.827-0.685-3.105-2.056-3.833
	c-1.371-0.728-3.529-1.091-6.474-1.091C27.83,5.966,27.085,6.017,26.307,6.119"/>
</svg>
